<?xml version="1.0" encoding="UTF-8" standalone="no"?>
<!DOCTYPE svg PUBLIC "-//W3C//DTD SVG 1.1//EN"
 "http://www.w3.org/Graphics/SVG/1.1/DTD/svg11.dtd">
<!-- Generated by graphviz version 2.43.0 (0)
 -->
<!-- Title: p1 Pages: 1 -->
<svg width="247pt" height="533pt"
 viewBox="0.00 0.00 247.07 533.18" xmlns="http://www.w3.org/2000/svg" xmlns:xlink="http://www.w3.org/1999/xlink">
<g id="graph0" class="graph" transform="scale(1 1) rotate(0) translate(4 529.18)">
<title>p1</title>
<polygon fill="white" stroke="transparent" points="-4,4 -4,-529.18 243.07,-529.18 243.07,4 -4,4"/>
<!-- start -->
<g id="node1" class="node">
<title>start</title>
<ellipse fill="lightgrey" stroke="black" cx="119.54" cy="-498.37" rx="26.62" ry="26.62"/>
<text text-anchor="middle" x="119.54" y="-494.17" font-family="Times,serif" font-size="14.00">Start</text>
</g>
<!-- setup -->
<g id="node2" class="node">
<title>setup</title>
<polygon fill="none" stroke="black" points="159.82,-434.56 79.25,-434.56 79.25,-398.56 159.82,-398.56 159.82,-434.56"/>
<text text-anchor="middle" x="119.54" y="-412.36" font-family="Times,serif" font-size="14.00">set sum = 0</text>
</g>
<!-- start&#45;&gt;setup -->
<g id="edge1" class="edge">
<title>start&#45;&gt;setup</title>
<path fill="none" stroke="black" d="M119.54,-471.24C119.54,-462.8 119.54,-453.43 119.54,-444.9"/>
<polygon fill="black" stroke="black" points="123.04,-444.7 119.54,-434.7 116.04,-444.7 123.04,-444.7"/>
</g>
<!-- getInput -->
<g id="node3" class="node">
<title>getInput</title>
<polygon fill="none" stroke="black" points="204.22,-361.56 34.85,-361.56 34.85,-325.56 204.22,-325.56 204.22,-361.56"/>
<text text-anchor="middle" x="119.54" y="-339.36" font-family="Times,serif" font-size="14.00">get user input from console</text>
</g>
<!-- setup&#45;&gt;getInput -->
<g id="edge2" class="edge">
<title>setup&#45;&gt;getInput</title>
<path fill="none" stroke="black" d="M119.54,-398.38C119.54,-390.35 119.54,-380.61 119.54,-371.63"/>
<polygon fill="black" stroke="black" points="123.04,-371.59 119.54,-361.59 116.04,-371.59 123.04,-371.59"/>
</g>
<!-- addInputToSum -->
<g id="node4" class="node">
<title>addInputToSum</title>
<polygon fill="none" stroke="black" points="132.28,-288.56 10.79,-288.56 10.79,-252.56 132.28,-252.56 132.28,-288.56"/>
<text text-anchor="middle" x="71.54" y="-266.36" font-family="Times,serif" font-size="14.00">sum = sum + input</text>
</g>
<!-- getInput&#45;&gt;addInputToSum -->
<g id="edge3" class="edge">
<title>getInput&#45;&gt;addInputToSum</title>
<path fill="none" stroke="black" d="M107.92,-325.38C102.14,-316.83 95.04,-306.33 88.66,-296.89"/>
<polygon fill="black" stroke="black" points="91.55,-294.92 83.05,-288.59 85.75,-298.84 91.55,-294.92"/>
</g>
<!-- ifInput -->
<g id="node5" class="node">
<title>ifInput</title>
<polygon fill="none" stroke="black" points="119.54,-215.56 -0.04,-197.56 119.54,-179.56 239.11,-197.56 119.54,-215.56"/>
<text text-anchor="middle" x="119.54" y="-193.36" font-family="Times,serif" font-size="14.00">if the user input is 0?</text>
</g>
<!-- addInputToSum&#45;&gt;ifInput -->
<g id="edge4" class="edge">
<title>addInputToSum&#45;&gt;ifInput</title>
<path fill="none" stroke="black" d="M83.16,-252.38C89.19,-243.45 96.66,-232.4 103.26,-222.64"/>
<polygon fill="black" stroke="black" points="106.3,-224.38 109.01,-214.14 100.51,-220.46 106.3,-224.38"/>
</g>
<!-- ifInput&#45;&gt;getInput -->
<g id="edge6" class="edge">
<title>ifInput&#45;&gt;getInput</title>
<path fill="none" stroke="black" d="M127.99,-214.6C133.02,-225.08 138.93,-239.25 141.54,-252.56 144.61,-268.26 144.61,-272.86 141.54,-288.56 139.75,-297.7 136.4,-307.25 132.85,-315.73"/>
<polygon fill="black" stroke="black" points="129.55,-314.54 128.67,-325.1 135.94,-317.39 129.55,-314.54"/>
<text text-anchor="middle" x="159.31" y="-266.36" font-family="Times,serif" font-size="14.00">False</text>
</g>
<!-- write -->
<g id="node6" class="node">
<title>write</title>
<polygon fill="none" stroke="black" points="214.61,-129.56 24.47,-129.56 24.47,-93.56 214.61,-93.56 214.61,-129.56"/>
<text text-anchor="middle" x="119.54" y="-107.36" font-family="Times,serif" font-size="14.00">write the summe to the console</text>
</g>
<!-- ifInput&#45;&gt;write -->
<g id="edge5" class="edge">
<title>ifInput&#45;&gt;write</title>
<path fill="none" stroke="black" d="M119.54,-179.16C119.54,-167.82 119.54,-152.79 119.54,-139.88"/>
<polygon fill="black" stroke="black" points="123.04,-139.66 119.54,-129.66 116.04,-139.66 123.04,-139.66"/>
<text text-anchor="middle" x="132.51" y="-150.36" font-family="Times,serif" font-size="14.00">True</text>
</g>
<!-- end -->
<g id="node7" class="node">
<title>end</title>
<ellipse fill="lightgrey" stroke="black" cx="119.54" cy="-28.28" rx="28.07" ry="28.07"/>
<text text-anchor="middle" x="119.54" y="-24.08" font-family="Times,serif" font-size="14.00">END</text>
</g>
<!-- write&#45;&gt;end -->
<g id="edge7" class="edge">
<title>write&#45;&gt;end</title>
<path fill="none" stroke="black" d="M119.54,-93.33C119.54,-85.61 119.54,-76.18 119.54,-66.95"/>
<polygon fill="black" stroke="black" points="123.04,-66.73 119.54,-56.73 116.04,-66.73 123.04,-66.73"/>
</g>
</g>
</svg>
