<?xml version="1.0" encoding="UTF-8" standalone="no"?>
<!DOCTYPE svg PUBLIC "-//W3C//DTD SVG 1.1//EN"
 "http://www.w3.org/Graphics/SVG/1.1/DTD/svg11.dtd">
<!-- Generated by graphviz version 2.43.0 (0)
 -->
<!-- Title: p1 Pages: 1 -->
<svg width="336pt" height="460pt"
 viewBox="0.00 0.00 336.16 460.18" xmlns="http://www.w3.org/2000/svg" xmlns:xlink="http://www.w3.org/1999/xlink">
<g id="graph0" class="graph" transform="scale(1 1) rotate(0) translate(4 456.18)">
<title>p1</title>
<polygon fill="white" stroke="transparent" points="-4,4 -4,-456.18 332.16,-456.18 332.16,4 -4,4"/>
<!-- start -->
<g id="node1" class="node">
<title>start</title>
<ellipse fill="lightgrey" stroke="black" cx="193.54" cy="-425.37" rx="26.62" ry="26.62"/>
<text text-anchor="middle" x="193.54" y="-421.17" font-family="Times,serif" font-size="14.00">Start</text>
</g>
<!-- setup -->
<g id="node2" class="node">
<title>setup</title>
<polygon fill="none" stroke="black" points="233.82,-361.56 153.25,-361.56 153.25,-325.56 233.82,-325.56 233.82,-361.56"/>
<text text-anchor="middle" x="193.54" y="-339.36" font-family="Times,serif" font-size="14.00">set sum = 0</text>
</g>
<!-- start&#45;&gt;setup -->
<g id="edge1" class="edge">
<title>start&#45;&gt;setup</title>
<path fill="none" stroke="black" d="M193.54,-398.24C193.54,-389.8 193.54,-380.43 193.54,-371.9"/>
<polygon fill="black" stroke="black" points="197.04,-371.7 193.54,-361.7 190.04,-371.7 197.04,-371.7"/>
</g>
<!-- getInput -->
<g id="node3" class="node">
<title>getInput</title>
<polygon fill="none" stroke="black" points="278.22,-288.56 108.85,-288.56 108.85,-252.56 278.22,-252.56 278.22,-288.56"/>
<text text-anchor="middle" x="193.54" y="-266.36" font-family="Times,serif" font-size="14.00">get user input from console</text>
</g>
<!-- setup&#45;&gt;getInput -->
<g id="edge2" class="edge">
<title>setup&#45;&gt;getInput</title>
<path fill="none" stroke="black" d="M193.54,-325.38C193.54,-317.35 193.54,-307.61 193.54,-298.63"/>
<polygon fill="black" stroke="black" points="197.04,-298.59 193.54,-288.59 190.04,-298.59 197.04,-298.59"/>
</g>
<!-- ifInput -->
<g id="node5" class="node">
<title>ifInput</title>
<polygon fill="none" stroke="black" points="119.54,-215.56 -0.04,-197.56 119.54,-179.56 239.11,-197.56 119.54,-215.56"/>
<text text-anchor="middle" x="119.54" y="-193.36" font-family="Times,serif" font-size="14.00">if the user input is 0?</text>
</g>
<!-- getInput&#45;&gt;ifInput -->
<g id="edge3" class="edge">
<title>getInput&#45;&gt;ifInput</title>
<path fill="none" stroke="black" d="M175.62,-252.38C165.71,-242.87 153.28,-230.94 142.64,-220.73"/>
<polygon fill="black" stroke="black" points="144.91,-218.06 135.28,-213.66 140.07,-223.11 144.91,-218.06"/>
</g>
<!-- addInputToSum -->
<g id="node4" class="node">
<title>addInputToSum</title>
<polygon fill="none" stroke="black" points="328.28,-129.56 206.79,-129.56 206.79,-93.56 328.28,-93.56 328.28,-129.56"/>
<text text-anchor="middle" x="267.54" y="-107.36" font-family="Times,serif" font-size="14.00">sum = sum + input</text>
</g>
<!-- addInputToSum&#45;&gt;getInput -->
<g id="edge6" class="edge">
<title>addInputToSum&#45;&gt;getInput</title>
<path fill="none" stroke="black" d="M267.48,-129.63C266.75,-150.94 263.21,-187.95 248.54,-215.56 242.55,-226.83 233.4,-237.19 224.27,-245.76"/>
<polygon fill="black" stroke="black" points="221.82,-243.25 216.67,-252.52 226.47,-248.48 221.82,-243.25"/>
</g>
<!-- ifInput&#45;&gt;addInputToSum -->
<g id="edge5" class="edge">
<title>ifInput&#45;&gt;addInputToSum</title>
<path fill="none" stroke="black" d="M143.32,-183.07C166.29,-170.03 201.5,-150.04 228.58,-134.68"/>
<polygon fill="black" stroke="black" points="230.45,-137.64 237.42,-129.66 226.99,-131.55 230.45,-137.64"/>
<text text-anchor="middle" x="214.51" y="-150.36" font-family="Times,serif" font-size="14.00">True</text>
</g>
<!-- write -->
<g id="node6" class="node">
<title>write</title>
<polygon fill="none" stroke="black" points="189.5,-129.56 15.57,-129.56 15.57,-93.56 189.5,-93.56 189.5,-129.56"/>
<text text-anchor="middle" x="102.54" y="-107.36" font-family="Times,serif" font-size="14.00">write the sum to the console</text>
</g>
<!-- ifInput&#45;&gt;write -->
<g id="edge4" class="edge">
<title>ifInput&#45;&gt;write</title>
<path fill="none" stroke="black" d="M116.18,-179.97C113.86,-168.5 110.72,-152.98 108.03,-139.73"/>
<polygon fill="black" stroke="black" points="111.42,-138.81 106,-129.7 104.56,-140.2 111.42,-138.81"/>
<text text-anchor="middle" x="127.31" y="-150.36" font-family="Times,serif" font-size="14.00">False</text>
</g>
<!-- end -->
<g id="node7" class="node">
<title>end</title>
<ellipse fill="lightgrey" stroke="black" cx="102.54" cy="-28.28" rx="28.07" ry="28.07"/>
<text text-anchor="middle" x="102.54" y="-24.08" font-family="Times,serif" font-size="14.00">END</text>
</g>
<!-- write&#45;&gt;end -->
<g id="edge7" class="edge">
<title>write&#45;&gt;end</title>
<path fill="none" stroke="black" d="M102.54,-93.33C102.54,-85.61 102.54,-76.18 102.54,-66.95"/>
<polygon fill="black" stroke="black" points="106.04,-66.73 102.54,-56.73 99.04,-66.73 106.04,-66.73"/>
</g>
</g>
</svg>
