<?xml version="1.0" encoding="UTF-8" standalone="no"?>
<!DOCTYPE svg PUBLIC "-//W3C//DTD SVG 1.1//EN"
 "http://www.w3.org/Graphics/SVG/1.1/DTD/svg11.dtd">
<!-- Generated by graphviz version 2.43.0 (0)
 -->
<!-- Title: p1 Pages: 1 -->
<svg width="586pt" height="630pt"
 viewBox="0.00 0.00 586.46 630.18" xmlns="http://www.w3.org/2000/svg" xmlns:xlink="http://www.w3.org/1999/xlink">
<g id="graph0" class="graph" transform="scale(1 1) rotate(0) translate(4 626.18)">
<title>p1</title>
<polygon fill="white" stroke="transparent" points="-4,4 -4,-626.18 582.46,-626.18 582.46,4 -4,4"/>
<!-- start -->
<g id="node1" class="node">
<title>start</title>
<ellipse fill="lightgrey" stroke="black" cx="101.26" cy="-595.37" rx="26.62" ry="26.62"/>
<text text-anchor="middle" x="101.26" y="-591.17" font-family="Times,serif" font-size="14.00">Start</text>
</g>
<!-- ifLT0 -->
<g id="node2" class="node">
<title>ifLT0</title>
<polygon fill="none" stroke="black" points="101.26,-531.56 12.1,-513.56 101.26,-495.56 190.41,-513.56 101.26,-531.56"/>
<text text-anchor="middle" x="101.26" y="-509.36" font-family="Times,serif" font-size="14.00">user input &lt; 0?</text>
</g>
<!-- start&#45;&gt;ifLT0 -->
<g id="edge1" class="edge">
<title>start&#45;&gt;ifLT0</title>
<path fill="none" stroke="black" d="M101.26,-568.24C101.26,-559.8 101.26,-550.43 101.26,-541.9"/>
<polygon fill="black" stroke="black" points="104.76,-541.7 101.26,-531.7 97.76,-541.7 104.76,-541.7"/>
</g>
<!-- error -->
<g id="node3" class="node">
<title>error</title>
<polygon fill="none" stroke="black" points="142.27,-391.56 0.24,-391.56 0.24,-355.56 142.27,-355.56 142.27,-391.56"/>
<text text-anchor="middle" x="71.26" y="-369.36" font-family="Times,serif" font-size="14.00">error: input must GT 1</text>
</g>
<!-- ifLT0&#45;&gt;error -->
<g id="edge2" class="edge">
<title>ifLT0&#45;&gt;error</title>
<path fill="none" stroke="black" d="M97.7,-496.19C92.63,-472.89 83.28,-429.89 77.17,-401.76"/>
<polygon fill="black" stroke="black" points="80.54,-400.81 75,-391.78 73.7,-402.29 80.54,-400.81"/>
<text text-anchor="middle" x="106.23" y="-466.36" font-family="Times,serif" font-size="14.00">True</text>
</g>
<!-- setupFoctor -->
<g id="node4" class="node">
<title>setupFoctor</title>
<polygon fill="none" stroke="black" points="197.85,-445.56 108.67,-445.56 108.67,-409.56 197.85,-409.56 197.85,-445.56"/>
<text text-anchor="middle" x="153.26" y="-423.36" font-family="Times,serif" font-size="14.00">set factor = 2</text>
</g>
<!-- ifLT0&#45;&gt;setupFoctor -->
<g id="edge4" class="edge">
<title>ifLT0&#45;&gt;setupFoctor</title>
<path fill="none" stroke="black" d="M110.79,-497.16C118.2,-485.19 128.64,-468.33 137.31,-454.32"/>
<polygon fill="black" stroke="black" points="140.42,-455.95 142.71,-445.61 134.47,-452.27 140.42,-455.95"/>
<text text-anchor="middle" x="146.03" y="-466.36" font-family="Times,serif" font-size="14.00">False</text>
</g>
<!-- end -->
<g id="node12" class="node">
<title>end</title>
<ellipse fill="lightgrey" stroke="black" cx="49.26" cy="-28.28" rx="28.07" ry="28.07"/>
<text text-anchor="middle" x="49.26" y="-24.08" font-family="Times,serif" font-size="14.00">END</text>
</g>
<!-- error&#45;&gt;end -->
<g id="edge3" class="edge">
<title>error&#45;&gt;end</title>
<path fill="none" stroke="black" d="M52.26,-355.28C35.02,-337.6 12.26,-308.43 12.26,-277.56 12.26,-277.56 12.26,-277.56 12.26,-110.56 12.26,-92.84 19.63,-74.75 27.79,-60.14"/>
<polygon fill="black" stroke="black" points="30.81,-61.91 32.92,-51.53 24.8,-58.33 30.81,-61.91"/>
</g>
<!-- ifNumNE1 -->
<g id="node5" class="node">
<title>ifNumNE1</title>
<polygon fill="none" stroke="black" points="225.26,-337.56 155.32,-319.56 225.26,-301.56 295.19,-319.56 225.26,-337.56"/>
<text text-anchor="middle" x="225.26" y="-315.36" font-family="Times,serif" font-size="14.00">Input != 1?</text>
</g>
<!-- setupFoctor&#45;&gt;ifNumNE1 -->
<g id="edge5" class="edge">
<title>setupFoctor&#45;&gt;ifNumNE1</title>
<path fill="none" stroke="black" d="M164.82,-409.53C176.96,-391.67 196.1,-363.48 209.59,-343.63"/>
<polygon fill="black" stroke="black" points="212.62,-345.4 215.34,-335.16 206.83,-341.47 212.62,-345.4"/>
</g>
<!-- if -->
<g id="node7" class="node">
<title>if</title>
<polygon fill="none" stroke="black" points="390.26,-251.56 253.13,-215.56 390.26,-179.56 527.38,-215.56 390.26,-251.56"/>
<text text-anchor="middle" x="390.26" y="-218.36" font-family="Times,serif" font-size="14.00">tem % factor == 0</text>
<text text-anchor="middle" x="390.26" y="-204.36" font-family="Times,serif" font-size="14.00"> AND isPrime(factor)</text>
</g>
<!-- ifNumNE1&#45;&gt;if -->
<g id="edge9" class="edge">
<title>ifNumNE1&#45;&gt;if</title>
<path fill="none" stroke="black" d="M244.83,-306.46C268.47,-291.85 309.09,-266.74 341.4,-246.76"/>
<polygon fill="black" stroke="black" points="343.61,-249.52 350.27,-241.28 339.93,-243.56 343.61,-249.52"/>
<text text-anchor="middle" x="315.23" y="-272.36" font-family="Times,serif" font-size="14.00">True</text>
</g>
<!-- reform -->
<g id="node10" class="node">
<title>reform</title>
<polygon fill="none" stroke="black" points="196.78,-233.56 49.73,-233.56 49.73,-197.56 196.78,-197.56 196.78,-233.56"/>
<text text-anchor="middle" x="123.26" y="-211.36" font-family="Times,serif" font-size="14.00">reform the result String</text>
</g>
<!-- ifNumNE1&#45;&gt;reform -->
<g id="edge6" class="edge">
<title>ifNumNE1&#45;&gt;reform</title>
<path fill="none" stroke="black" d="M208.13,-305.93C199.86,-299.55 189.96,-291.49 181.7,-283.56 168.19,-270.58 154.35,-254.84 143.53,-241.88"/>
<polygon fill="black" stroke="black" points="145.95,-239.32 136.89,-233.83 140.55,-243.77 145.95,-239.32"/>
<text text-anchor="middle" x="196.03" y="-272.36" font-family="Times,serif" font-size="14.00">False</text>
</g>
<!-- incFactor -->
<g id="node6" class="node">
<title>incFactor</title>
<polygon fill="none" stroke="black" points="322.69,-129.56 257.82,-129.56 257.82,-93.56 322.69,-93.56 322.69,-129.56"/>
<text text-anchor="middle" x="290.26" y="-107.36" font-family="Times,serif" font-size="14.00">factor++</text>
</g>
<!-- incFactor&#45;&gt;ifNumNE1 -->
<g id="edge12" class="edge">
<title>incFactor&#45;&gt;ifNumNE1</title>
<path fill="none" stroke="black" d="M275.09,-129.74C264.65,-142.57 251.43,-161.01 244.26,-179.56 230.01,-216.43 226.19,-262.41 225.3,-291.13"/>
<polygon fill="black" stroke="black" points="221.8,-291.17 225.09,-301.24 228.8,-291.32 221.8,-291.17"/>
</g>
<!-- if&#45;&gt;incFactor -->
<g id="edge11" class="edge">
<title>if&#45;&gt;incFactor</title>
<path fill="none" stroke="black" d="M362.93,-186.69C347.76,-171.22 329.06,-152.15 314.43,-137.22"/>
<polygon fill="black" stroke="black" points="316.69,-134.53 307.19,-129.84 311.69,-139.43 316.69,-134.53"/>
<text text-anchor="middle" x="352.03" y="-150.36" font-family="Times,serif" font-size="14.00">False</text>
</g>
<!-- addFactor -->
<g id="node8" class="node">
<title>addFactor</title>
<polygon fill="none" stroke="black" points="512.21,-129.56 370.3,-129.56 370.3,-93.56 512.21,-93.56 512.21,-129.56"/>
<text text-anchor="middle" x="441.26" y="-107.36" font-family="Times,serif" font-size="14.00">add factor to the result</text>
</g>
<!-- if&#45;&gt;addFactor -->
<g id="edge10" class="edge">
<title>if&#45;&gt;addFactor</title>
<path fill="none" stroke="black" d="M405.84,-183.41C412.95,-169.17 421.29,-152.49 428.09,-138.89"/>
<polygon fill="black" stroke="black" points="431.39,-140.12 432.73,-129.61 425.13,-136.99 431.39,-140.12"/>
<text text-anchor="middle" x="436.23" y="-150.36" font-family="Times,serif" font-size="14.00">True</text>
</g>
<!-- divInput -->
<g id="node9" class="node">
<title>divInput</title>
<polygon fill="none" stroke="black" points="578.67,-46.28 461.84,-46.28 461.84,-10.28 578.67,-10.28 578.67,-46.28"/>
<text text-anchor="middle" x="520.26" y="-24.08" font-family="Times,serif" font-size="14.00">tem = tem / factor</text>
</g>
<!-- addFactor&#45;&gt;divInput -->
<g id="edge13" class="edge">
<title>addFactor&#45;&gt;divInput</title>
<path fill="none" stroke="black" d="M458.01,-93.33C469.22,-81.79 484.13,-66.45 496.55,-53.67"/>
<polygon fill="black" stroke="black" points="499.07,-56.11 503.53,-46.49 494.05,-51.23 499.07,-56.11"/>
</g>
<!-- divInput&#45;&gt;ifNumNE1 -->
<g id="edge14" class="edge">
<title>divInput&#45;&gt;ifNumNE1</title>
<path fill="none" stroke="black" d="M528.51,-46.36C546.82,-87 585.48,-190.61 536.26,-251.56 505.64,-289.48 369.48,-306.96 287.81,-314.16"/>
<polygon fill="black" stroke="black" points="287.31,-310.69 277.64,-315.03 287.91,-317.66 287.31,-310.69"/>
</g>
<!-- write -->
<g id="node11" class="node">
<title>write</title>
<polygon fill="none" stroke="black" points="224.61,-129.56 39.9,-129.56 39.9,-93.56 224.61,-93.56 224.61,-129.56"/>
<text text-anchor="middle" x="132.26" y="-107.36" font-family="Times,serif" font-size="14.00">write the String to the console</text>
</g>
<!-- reform&#45;&gt;write -->
<g id="edge7" class="edge">
<title>reform&#45;&gt;write</title>
<path fill="none" stroke="black" d="M124.78,-197.26C126.17,-181.49 128.25,-157.93 129.87,-139.66"/>
<polygon fill="black" stroke="black" points="133.36,-139.88 130.75,-129.61 126.39,-139.26 133.36,-139.88"/>
</g>
<!-- write&#45;&gt;end -->
<g id="edge8" class="edge">
<title>write&#45;&gt;end</title>
<path fill="none" stroke="black" d="M114.65,-93.33C103.62,-82.52 89.17,-68.37 76.66,-56.11"/>
<polygon fill="black" stroke="black" points="78.76,-53.27 69.16,-48.78 73.86,-58.27 78.76,-53.27"/>
</g>
</g>
</svg>
